# xmcd
#
# Track frame offsets:
#	150
#	13403
#	24269
#	37584
#	46675
#	59504
#	71258
#	84199
#	96041
#	105969
#	116097
#	127275
#	140665
#	151280
#	160320
#	172436
#	183651
#	194443
#	209359
#	221675
#	233066
#	248333
#	260012
#	273090
#
# Disc length: 3806 seconds
#
# Revision: 1
# Processed by: cddbd v1.5.2PL0 Copyright (c) Steve Scherf et al.
# Submitted via: EasyCDDAExtractor 11.0.0.1
#
DISCID=4f0edc18
DTITLE=Connie Francis - Sings Country and Western Hits
DYEAR=1900
DGENRE=Country
TTITLE0=Tennessee Waltz
TTITLE1=Your Cheatin' Heart
TTITLE2=My Special Angel
TTITLE3=Hearts Of Stone
TTITLE4=Half As Much
TTITLE5=Send Me The Pillow That You Dream On
TTITLE6=Wolverton Mountain
TTITLE7=Please Help Me, I'm Fallin' (In Love With You)
TTITLE8=Singing The Blues
TTITLE9=Walk On By
TTITLE10=If You've Got The Money, I've Got The Time
TTITLE11=Mule Skinner Blues
TTITLE12=Making Believe
TTITLE13=Blue, Blue Day
TTITLE14=No Letter Today
TTITLE15=Bye Bye Love
TTITLE16=Wabash Cannonball
TTITLE17=I Really Don't Want To Know
TTITLE18=I Fall To Pieces
TTITLE19=Someday (You'll Want Me To Want You)
TTITLE20=He Thinks I Still Care
TTITLE21=I'm A Fool To Care
TTITLE22=I Can't Stop Loving You
TTITLE23=Heartaches By The Number
EXTD=
EXTT0=
EXTT1=
EXTT2=
EXTT3=
EXTT4=
EXTT5=
EXTT6=
EXTT7=
EXTT8=
EXTT9=
EXTT10=
EXTT11=
EXTT12=
EXTT13=
EXTT14=
EXTT15=
EXTT16=
EXTT17=
EXTT18=
EXTT19=
EXTT20=
EXTT21=
EXTT22=
EXTT23=
PLAYORDER=
